<?xml version="1.0" encoding="utf-8"?>
<!-- Generator: Adobe Illustrator 19.0.0, SVG Export Plug-In . SVG Version: 6.00 Build 0)  -->
<svg version="1.1" id="Layer_1" xmlns="http://www.w3.org/2000/svg" xmlns:xlink="http://www.w3.org/1999/xlink" x="0px" y="0px"
	 viewBox="0 0 650 650" style="enable-background:new 0 0 650 650;" xml:space="preserve">
<style type="text/css">
	.st0{fill:#666766;}
</style>
<path id="XMLID_19_" class="st0" d="M514.6,0H135.4C60.6,0,0,60.6,0,135.4v379.2C0,589.4,60.6,650,135.4,650h379.2
	c74.8,0,135.4-60.6,135.4-135.4V135.4C650,60.6,589.4,0,514.6,0z M216.7,514.6h-81.3V216.7h81.3V514.6z M176,182.3
	c-26.2,0-47.4-21.4-47.4-47.8s21.2-47.8,47.4-47.8s47.4,21.4,47.4,47.8S202.2,182.3,176,182.3z M541.7,514.6h-81.3V362.8
	c0-91.2-108.3-84.3-108.3,0v151.8h-81.3V216.7h81.3v47.8c37.8-70,189.6-75.2,189.6,67.1V514.6z"/>
</svg>
