<?xml version="1.0" encoding="utf-8"?>
<!-- Generator: Adobe Illustrator 19.0.0, SVG Export Plug-In . SVG Version: 6.00 Build 0)  -->
<svg version="1.1" id="Layer_1" xmlns="http://www.w3.org/2000/svg" xmlns:xlink="http://www.w3.org/1999/xlink" x="0px" y="0px"
	 viewBox="0 0 650 650" style="enable-background:new 0 0 650 650;" xml:space="preserve">
<style type="text/css">
	.st0{fill:#666766;}
</style>
<g id="XMLID_12_">
	<path id="XMLID_13_" class="st0" d="M328.1,560.1c-73-2.3-142.5-4.1-212-6.8c-15-0.6-30.2-2.9-44.8-6.4
		c-27.4-6.4-46.3-22.9-56-49.9c-7.8-21.7-10.6-44.1-12.7-66.9c-4.5-53.5-4.5-106.9-2.3-160.4c1.3-30.2,2-60.6,10.1-89.9
		c4.9-17.5,10.7-34.7,24.9-47.3c15-13.4,32.5-21.5,52.4-22.4c54.7-2.7,109.4-6,164.1-6.5c73.7-0.8,147.5,0.3,221.2,1.7
		c31.9,0.6,64,2.3,95.6,6.4c28.9,3.8,50.5,20,62,48.1c8.8,21.6,12.2,44.3,14.1,67.3c5,57.7,5.1,115.4,2.3,173.1
		c-1.4,29.3-2.8,58.7-11.1,87.2c-9.5,32.7-29.5,54.4-63.1,61.8c-13,2.8-26.6,3.8-39.9,4.3C463.5,555.9,394,558.1,328.1,560.1z
		 M257.4,414.7c58.3-30.2,116-60.1,174.9-90.7c-58.7-30.7-116.4-60.8-174.9-91.3C257.4,293.7,257.4,353.7,257.4,414.7z"/>
</g>
</svg>
