<?xml version="1.0" encoding="utf-8"?>
<!-- Generator: Adobe Illustrator 19.0.0, SVG Export Plug-In . SVG Version: 6.00 Build 0)  -->
<svg version="1.1" id="Layer_1" xmlns="http://www.w3.org/2000/svg" xmlns:xlink="http://www.w3.org/1999/xlink" x="0px" y="0px"
	 viewBox="0 0 650 650" style="enable-background:new 0 0 650 650;" xml:space="preserve">
<style type="text/css">
	.st0{fill:#666766;}
</style>
<path id="XMLID_2_" class="st0" d="M325,0C145.6,0,0,145.6,0,325s145.6,325,325,325c179.1,0,325-145.6,325-325S504.1,0,325,0z
	 M539.7,149.8c38.8,47.2,62,107.5,62.7,172.7c-9.2-1.8-100.8-20.4-193.2-8.8c-2.1-4.6-3.9-9.5-6-14.5c-5.6-13.4-12-27.1-18.3-40.2
	C487.1,217.5,533.7,157.6,539.7,149.8z M325,47.9c70.5,0,135,26.4,184,69.8c-4.9,7-46.9,63.1-145.6,100.1
	C318,134.3,267.5,65.9,259.8,55.3C280.6,50.4,302.4,47.9,325,47.9z M206.9,74c7.4,9.9,56.8,78.6,102.9,160.4
	C180.1,269,65.6,268.2,53.2,268.2C71.2,182.2,129.4,110.7,206.9,74z M47.2,325.4c0-2.8,0-5.6,0-8.5c12,0.4,146.6,2.1,285.2-39.5
	c8.1,15.5,15.5,31.4,22.6,47.2c-3.5,1.1-7.4,2.1-10.9,3.2C200.9,374,124.8,500.2,118.4,510.8C74.4,461.8,47.2,396.6,47.2,325.4z
	 M325,602.8c-64.2,0-123.4-21.9-170.3-58.5c4.9-10.2,61.3-118.8,217.8-173.4c0.7-0.4,1.1-0.4,1.8-0.7
	c39.1,101.2,55,186.1,59.2,210.4C400.1,595,363.4,602.8,325,602.8z M479.7,555.2c-2.8-16.9-17.6-98-53.9-197.7
	c87.1-13.7,163.2,8.8,172.7,12C586.6,446.6,542.1,513.2,479.7,555.2z"/>
</svg>
